<?xml version="1.0" standalone="no"?>
<!DOCTYPE svg PUBLIC "-//W3C//DTD SVG 20010904//EN"
 "http://www.w3.org/TR/2001/REC-SVG-20010904/DTD/svg10.dtd">
<svg version="1.0" xmlns="http://www.w3.org/2000/svg"
 width="626.000000pt" height="626.000000pt" viewBox="0 0 626.000000 626.000000"
 preserveAspectRatio="xMidYMid meet">

<g transform="translate(0.000000,626.000000) scale(0.100000,-0.100000)"
fill="#000000" stroke="none">
<path d="M4195 5069 c-44 -11 -92 -23 -107 -26 -16 -3 -28 -9 -28 -14 0 -5 -9
-9 -20 -9 -11 0 -20 -4 -20 -10 0 -5 -7 -10 -16 -10 -13 0 -154 -131 -154
-143 0 -3 -16 -31 -35 -63 -19 -32 -35 -66 -35 -76 0 -10 -4 -18 -10 -18 -5 0
-10 -14 -10 -30 0 -31 -37 -80 -60 -80 -30 0 -180 -125 -180 -149 0 -6 -4 -11
-10 -11 -5 0 -10 -9 -10 -20 0 -11 -4 -20 -10 -20 -5 0 -10 -9 -10 -20 0 -11
-4 -20 -8 -20 -11 0 -32 -82 -32 -124 0 -22 6 -36 16 -40 28 -11 821 -7 850 4
25 10 26 13 20 56 -3 25 -19 74 -36 109 -16 35 -30 68 -30 75 0 6 -4 8 -10 5
-5 -3 -10 -1 -10 5 0 6 -6 17 -12 24 -7 8 -20 23 -28 35 -8 11 -19 21 -25 21
-6 0 -20 8 -31 18 -10 10 -34 27 -51 37 -34 20 -42 44 -20 67 6 7 18 25 26 41
8 15 18 27 22 27 5 0 19 11 33 25 14 14 34 25 46 25 11 0 20 5 20 10 0 6 43
10 110 10 67 0 110 -4 110 -10 0 -5 12 -10 26 -10 29 0 124 -89 124 -115 0 -8
5 -15 10 -15 6 0 10 -13 10 -30 0 -16 5 -30 10 -30 7 0 10 -222 10 -645 l0
-645 -1671 0 c-1221 0 -1676 -3 -1691 -11 -34 -18 -68 -56 -84 -94 -20 -49
-19 -206 2 -248 23 -44 72 -87 106 -94 15 -3 29 -6 30 -7 1 0 5 -129 9 -286 6
-281 13 -355 30 -366 5 -3 9 -14 9 -25 0 -10 5 -19 10 -19 6 0 10 -9 10 -20 0
-18 17 -58 30 -70 3 -3 19 -26 35 -52 17 -27 33 -48 38 -48 4 0 7 -5 7 -10 0
-14 118 -129 125 -122 3 3 5 -2 5 -10 0 -9 8 -18 18 -21 20 -7 105 -56 112
-66 8 -10 80 -41 95 -41 8 0 15 -4 15 -10 0 -5 9 -10 20 -10 16 0 20 -7 20
-30 0 -16 -4 -30 -10 -30 -5 0 -10 -9 -10 -20 0 -12 -16 -36 -35 -55 -26 -26
-43 -35 -69 -35 -43 0 -110 -35 -127 -66 -7 -13 -16 -24 -21 -24 -4 0 -8 -29
-8 -65 0 -37 4 -65 10 -65 6 0 10 -6 10 -13 0 -29 82 -77 132 -77 58 0 198 44
198 62 0 5 7 8 15 8 21 0 115 94 115 115 0 9 5 13 10 10 6 -3 10 1 10 9 0 9 5
16 10 16 6 0 10 9 10 20 0 11 5 20 10 20 6 0 10 7 10 15 0 8 4 23 9 33 13 24
41 117 41 136 0 14 92 16 910 16 860 0 910 -1 910 -17 0 -22 34 -130 43 -139
4 -4 7 -16 7 -26 0 -10 5 -18 10 -18 6 0 10 -8 10 -18 0 -10 9 -24 20 -32 11
-8 20 -21 20 -28 0 -18 96 -112 115 -112 8 0 15 -3 15 -8 0 -13 79 -42 151
-54 69 -12 73 -12 118 13 25 14 50 35 56 47 5 12 13 22 17 22 5 0 8 27 8 60 0
60 -7 75 -54 121 -11 11 -28 19 -38 19 -10 0 -18 5 -18 10 0 6 -18 10 -40 10
-33 0 -47 7 -75 35 -19 19 -35 43 -35 55 0 11 -4 20 -10 20 -5 0 -10 14 -10
30 0 23 4 30 20 30 11 0 20 5 20 10 0 6 7 10 15 10 15 0 86 31 95 41 3 3 20
12 38 20 17 8 32 17 32 21 0 5 7 8 15 8 8 0 15 5 15 10 0 6 5 10 10 10 12 0
150 135 150 146 0 4 8 14 19 23 10 9 26 30 35 46 9 17 25 44 36 60 10 17 19
40 19 53 1 12 6 22 11 22 6 0 10 9 10 20 0 11 4 20 9 20 16 0 23 83 30 370 4
157 8 286 9 286 1 1 15 4 31 7 16 3 36 13 44 22 9 8 21 15 27 15 6 0 8 5 5 10
-3 6 -2 10 3 10 4 0 16 16 25 35 23 47 23 199 1 253 -16 42 -55 82 -79 82 -8
0 -15 5 -15 10 0 6 -9 10 -20 10 -11 0 -21 1 -22 3 -2 1 -6 297 -9 657 -6 635
-11 750 -30 750 -5 0 -9 11 -9 25 0 14 -4 25 -10 25 -5 0 -10 9 -10 20 0 11
-4 20 -10 20 -5 0 -10 7 -10 17 0 35 -157 203 -190 203 -6 0 -10 5 -10 10 0 6
-8 10 -18 10 -10 0 -22 4 -27 8 -13 12 -107 39 -174 52 -77 14 -144 11 -236
-11z m435 -2514 c0 -177 -4 -275 -10 -275 -5 0 -10 -7 -10 -16 0 -19 -52 -114
-62 -114 -5 0 -8 -6 -8 -14 0 -19 -98 -116 -118 -116 -4 0 -14 -9 -22 -20 -8
-11 -22 -20 -32 -20 -10 0 -18 -4 -18 -10 0 -5 -8 -10 -18 -10 -10 0 -24 -6
-30 -12 -10 -10 -256 -14 -1145 -16 -1067 -3 -1135 -2 -1189 15 -32 10 -58 21
-58 25 0 5 -8 8 -18 8 -10 0 -24 9 -32 20 -8 11 -18 20 -22 20 -16 0 -108 86
-108 100 0 5 -6 15 -13 22 -20 20 -67 106 -67 123 0 8 -4 15 -10 15 -6 0 -10
98 -10 275 l0 275 1500 0 1500 0 0 -275z"/>
<path d="M3538 4096 c-10 -7 -18 -18 -18 -25 0 -6 -4 -11 -10 -11 -5 0 -10
-20 -10 -45 0 -70 37 -99 103 -82 15 4 27 14 27 22 0 8 5 15 10 15 6 0 10 24
10 54 0 46 -3 56 -20 61 -11 3 -20 11 -20 16 0 14 -52 10 -72 -5z"/>
<path d="M3833 4084 c-13 -14 -24 -33 -25 -42 0 -10 -2 -24 -3 -32 -2 -25 25
-70 48 -79 86 -33 145 80 78 149 -35 37 -69 38 -98 4z"/>
<path d="M4133 4085 c-24 -25 -33 -105 -13 -105 6 0 10 -9 10 -19 0 -37 85
-48 118 -15 6 7 12 36 12 65 0 44 -4 55 -27 75 -35 30 -72 30 -100 -1z"/>
<path d="M4223 3830 c-12 -5 -29 -20 -39 -34 -15 -24 -15 -30 2 -86 10 -34 24
-60 31 -60 7 0 13 -4 13 -10 0 -5 16 -10 35 -10 19 0 35 5 35 10 0 6 6 10 14
10 35 0 26 125 -11 160 -24 24 -53 31 -80 20z"/>
<path d="M3474 3822 c-21 -14 -44 -71 -44 -110 0 -50 27 -82 69 -82 38 0 54
14 75 65 20 48 20 70 -1 106 -14 23 -24 29 -53 29 -19 0 -40 -4 -46 -8z"/>
<path d="M3831 3809 c-21 -23 -32 -92 -19 -127 13 -38 34 -52 75 -52 32 0 41
5 56 31 24 42 22 110 -4 143 -26 33 -79 36 -108 5z"/>
<path d="M3393 3526 c-18 -8 -23 -19 -23 -48 0 -20 -5 -40 -11 -44 -8 -4 -8
-9 0 -17 6 -6 11 -19 11 -29 0 -11 7 -18 18 -18 10 0 23 -5 29 -11 20 -20 83
26 83 60 0 12 5 21 10 21 6 0 10 9 10 20 0 11 -4 20 -10 20 -5 0 -10 7 -10 16
0 39 -57 56 -107 30z"/>
<path d="M3850 3530 c0 -5 -7 -10 -15 -10 -8 0 -19 -16 -25 -39 -21 -79 38
-144 105 -115 17 7 26 13 22 14 -5 0 -1 7 7 16 44 43 -1 144 -63 144 -17 0
-31 -4 -31 -10z"/>
<path d="M4278 3526 c-14 -10 -18 -28 -18 -70 0 -58 14 -86 42 -86 8 0 20 -6
27 -12 11 -10 14 -10 18 0 3 6 12 12 20 12 33 0 60 78 33 95 -5 3 -10 16 -10
29 0 39 -75 60 -112 32z"/>
</g>
</svg>
