<?xml version="1.0" standalone="no"?>
<!DOCTYPE svg PUBLIC "-//W3C//DTD SVG 20010904//EN"
 "http://www.w3.org/TR/2001/REC-SVG-20010904/DTD/svg10.dtd">
<svg version="1.0" xmlns="http://www.w3.org/2000/svg"
 width="1600.000000pt" height="1600.000000pt" viewBox="0 0 1600.000000 1600.000000"
 preserveAspectRatio="xMidYMid meet">

<g transform="translate(0.000000,1600.000000) scale(0.100000,-0.100000)"
fill="#000000" stroke="none">
<path d="M3290 13705 l-705 -705 708 -708 707 -707 0 458 0 457 2795 0 2795 0
0 -457 0 -458 707 708 708 707 -708 707 -707 708 0 -458 0 -457 -2795 0 -2795
0 -2 455 -3 455 -705 -705z"/>
<path d="M2500 6750 l0 -4250 4250 0 4250 0 0 4250 0 4250 -4250 0 -4250 0 0
-4250z m7500 0 l0 -3250 -3250 0 -3250 0 0 3250 0 3250 3250 0 3250 0 0 -3250z"/>
<path d="M12290 10295 l-705 -705 458 0 457 0 0 -2795 0 -2795 -457 0 -458 0
708 -707 707 -708 707 708 708 707 -458 0 -457 0 0 2795 0 2795 457 0 458 0
-705 705 c-388 388 -707 705 -710 705 -3 0 -322 -317 -710 -705z"/>
</g>
</svg>
